<?xml version="1.0" encoding="UTF-8"?>
<svg version="1.1" xmlns="http://www.w3.org/2000/svg" width="1536" height="1024">
<path d="M0 0 C506.88 0 1013.76 0 1536 0 C1536 337.92 1536 675.84 1536 1024 C1029.12 1024 522.24 1024 0 1024 C0 686.08 0 348.16 0 0 Z " fill="#FEFEFE" transform="translate(0,0)"/>
<path d="M0 0 C1.69762738 -0.0001555 3.3952551 -0.00165283 5.09288025 -0.00440979 C8.62694257 -0.00578367 12.16059406 0.00659398 15.69458008 0.02954102 C20.18832805 0.05794444 24.68139629 0.05516865 29.17519474 0.0424509 C32.67314805 0.03544408 36.17094859 0.04333925 39.66888237 0.05570793 C41.32441049 0.06017247 42.9799553 0.06060384 44.6354847 0.05664253 C62.30691037 0.03413703 77.60834099 2.65396146 90.9609375 15.2421875 C102.24914552 27.55465636 104.66069511 41.15256988 104.27734375 57.24609375 C104.25722345 58.73304853 104.23898257 60.22002997 104.22265625 61.70703125 C104.17915461 65.30395148 104.1104423 68.89984432 104.02734375 72.49609375 C105.45648857 72.486101 105.45648857 72.486101 106.914505 72.47590637 C115.93203775 72.41485877 124.94952808 72.37000822 133.96722126 72.34065723 C138.60234054 72.32505988 143.23729183 72.3039311 147.87231445 72.26977539 C152.35272541 72.23696894 156.83297566 72.21919624 161.31349754 72.21146202 C163.01536778 72.20595646 164.71723009 72.19520636 166.41903114 72.17890358 C183.6229166 72.02078137 197.84158615 74.76894172 210.703125 86.984375 C223.87468644 101.21851619 224.62015557 116.23909831 224.54492188 134.59765625 C224.55034915 136.82623755 224.55747519 139.05481525 224.56616211 141.28338623 C224.58432621 147.30817287 224.57735641 153.33268411 224.56464577 159.35747528 C224.55448226 165.67794 224.56392073 171.99838196 224.57019043 178.31884766 C224.57792184 189.60943329 224.56553148 200.89987977 224.54515308 212.19043756 C224.52728454 222.40631696 224.53038942 232.6220145 224.54882812 242.83789062 C224.57028339 254.73047584 224.57817615 266.62295079 224.56637907 278.51556206 C224.56015954 284.80023435 224.55926612 291.08478165 224.57252502 297.3694458 C224.58412353 303.27935435 224.57598455 309.18892119 224.552948 315.09879303 C224.54768228 317.26103398 224.5491378 319.42330394 224.55799866 321.58553314 C224.63612349 342.59482015 224.63612349 342.59482015 220.02734375 352.49609375 C219.64934883 353.31604828 219.27135391 354.13600281 218.8819046 354.98080444 C211.9598281 369.19806084 199.52766595 377.41288024 185.02734375 382.49609375 C181.46719589 383.34049374 178.17111889 383.62414551 174.51612186 383.63310814 C172.86301017 383.64071995 172.86301017 383.64071995 171.17650229 383.64848554 C169.97107651 383.6489833 168.76565073 383.64948106 167.5236969 383.6499939 C166.23890015 383.65437615 164.9541034 383.6587584 163.63037342 383.66327345 C160.06580231 383.67521336 156.50124472 383.68088141 152.93665755 383.68545461 C149.09117031 383.6914206 145.24569915 383.70302802 141.40022278 383.71374512 C132.11332502 383.73824756 122.82642194 383.75289376 113.53950182 383.76580518 C110.9149777 383.7695189 108.2904541 383.77349199 105.66593051 383.77755785 C89.35669434 383.8027978 73.0474573 383.82484388 56.73820591 383.837286 C52.96194518 383.84021554 49.18568449 383.84317722 45.40942383 383.84619141 C44.47088941 383.84693746 43.532355 383.84768351 42.56538015 383.84845217 C27.3722949 383.86109735 12.1793269 383.89431036 -3.01370358 383.93599324 C-18.62392154 383.97846837 -34.23407958 384.00198752 -49.84435517 384.00720656 C-58.60410023 384.01061451 -67.3636621 384.02229667 -76.12335014 384.0553093 C-83.58590977 384.08338784 -91.04824864 384.09427508 -98.51085698 384.08311383 C-102.31422808 384.07794691 -106.11713745 384.08068445 -109.92044067 384.10557938 C-114.0559952 384.13242145 -118.19054533 384.11994487 -122.32615662 384.10409546 C-124.10418054 384.12491859 -124.10418054 384.12491859 -125.91812414 384.14616239 C-140.05604786 384.01336858 -152.1118533 378.85840676 -162.375 369.24609375 C-177.16026307 353.89500531 -178.42519671 336.31103062 -178.36083984 316.12890625 C-178.36491065 313.97914362 -178.37025538 311.82938308 -178.37677002 309.67962646 C-178.39038879 303.8697466 -178.38516745 298.06002745 -178.37563276 292.25014496 C-178.36800792 286.15390101 -178.3750896 280.0576703 -178.37979126 273.96142578 C-178.3852406 263.726212 -178.37807877 253.49106327 -178.36376953 243.25585938 C-178.34744466 231.44289244 -178.35273374 219.63008087 -178.36924875 207.81711769 C-178.38288703 197.65285225 -178.38477182 187.48863344 -178.37693274 177.3243618 C-178.37226911 171.26327342 -178.37159526 165.20225794 -178.38154221 159.14117432 C-178.39024369 153.44143697 -178.38413191 147.74189887 -178.36685944 142.04218292 C-178.36291157 139.95734232 -178.3639993 137.8724848 -178.37064743 135.78765106 C-178.42455089 117.15820442 -176.63267129 101.83626692 -163.30078125 87.75390625 C-150.03662196 74.89034238 -135.73649621 72.02236247 -117.80859375 72.203125 C-116.16379181 72.20873078 -114.5189848 72.21299623 -112.87417603 72.21598816 C-108.5767802 72.22735971 -104.2796959 72.25675918 -99.98242188 72.2901001 C-95.58467826 72.32096825 -91.18688357 72.33452903 -86.7890625 72.34960938 C-78.18345191 72.38163751 -69.578093 72.4327389 -60.97265625 72.49609375 C-61.00407715 71.23502808 -61.00407715 71.23502808 -61.03613281 69.94848633 C-61.10520002 66.76330798 -61.15488199 63.57851698 -61.19238281 60.39282227 C-61.21222892 59.02648185 -61.23931539 57.66022316 -61.27441406 56.29418945 C-61.67769018 40.16907535 -57.93864295 26.61486275 -46.72265625 14.74609375 C-33.20593729 1.99404774 -17.77498002 -0.134683 0 0 Z " fill="#23C9A0" transform="translate(950.97265625,342.50390625)"/>
<path d="M0 0 C4.44497915 3.47364506 8.63612511 7.20359721 12.78125 11.02734375 C15.39101626 13.38338274 18.07737636 15.60365718 20.8125 17.8125 C25.27670457 21.42399134 29.54252114 25.19910694 33.78515625 29.06640625 C36.38212393 31.37437598 39.04654013 33.56805863 41.75 35.75 C46.523903 39.61075137 51.04638428 43.68687075 55.5625 47.84375 C58.24987634 50.25628104 61.00215444 52.5450621 63.8125 54.8125 C68.56989668 58.65085414 73.07033918 62.70872359 77.56640625 66.84765625 C80.23125166 69.23957297 82.96081825 71.50504884 85.75 73.75 C90.28486161 77.40756264 94.56786183 81.25867027 98.82958984 85.22412109 C102.94029276 89.02648807 107.23525584 92.55520592 111.59765625 96.06640625 C114.41923495 98.4008059 117.11840712 100.83240598 119.8125 103.3125 C123.39042463 106.60581699 127.02789666 109.75901321 130.8125 112.8125 C135.56989668 116.65085414 140.07033918 120.70872359 144.56640625 124.84765625 C147.23125166 127.23957297 149.96081825 129.50504884 152.75 131.75 C157.28486161 135.40756264 161.56786183 139.25867027 165.82958984 143.22412109 C169.94029276 147.02648807 174.23525584 150.55520592 178.59765625 154.06640625 C182.36544807 157.18364409 185.93349751 160.5017941 189.52734375 163.81640625 C193.26407734 167.16531616 197.1621326 170.29119091 201.09765625 173.40234375 C203.3125 175.3125 203.3125 175.3125 205.3125 178.3125 C204.44498108 178.31796844 204.44498108 178.31796844 203.55993652 178.32354736 C197.45835307 178.36584681 191.3574891 178.43551136 185.25634766 178.52001953 C182.9891688 178.54798558 180.72189686 178.56931924 178.45458984 178.58349609 C154.77933694 178.74028585 135.05999582 181.72847896 117.0390625 198.41796875 C112.36342182 203.18137743 108.96979763 208.22654835 105.9375 214.125 C105.61579834 214.73980225 105.29409668 215.35460449 104.96264648 215.98803711 C98.4761634 229.37766081 98.89031598 243.29496035 98.95605469 257.80297852 C98.95526266 260.06125976 98.95316185 262.31954086 98.94985962 264.57781982 C98.94474998 270.67896665 98.9582125 276.77994321 98.97538662 282.88106275 C98.99048824 289.28292231 98.98925016 295.68478027 98.99005127 302.08665466 C98.99373714 312.83376511 99.00857752 323.58079761 99.03125 334.32788086 C99.05450886 345.36108939 99.06867621 356.39425739 99.07226562 367.42749023 C99.07259978 368.44718384 99.07259978 368.44718384 99.07294068 369.48747731 C99.07338331 370.8571658 99.07382534 372.22685428 99.07426675 373.59654277 C99.07448631 374.27236921 99.07470588 374.94819566 99.0749321 375.64450169 C99.07514808 376.31873599 99.07536407 376.99297029 99.0755866 377.68763593 C99.07952119 388.87713612 99.09221446 400.06662869 99.10527897 411.2561214 C99.10936563 415.05769052 99.11229748 418.85925926 99.11507416 422.66082954 C99.11999032 428.64533113 99.13023242 434.629802 99.14451218 440.61428833 C99.1490101 442.80394653 99.15186786 444.99360884 99.15291977 447.18327141 C99.15468428 450.18463485 99.16261555 453.18592332 99.17205811 456.18727112 C99.17119162 457.04225852 99.17032514 457.89724592 99.1694324 458.77814204 C99.20033902 465.3803684 99.75906474 471.67127692 100.3125 478.3125 C79.5225 478.3125 58.7325 478.3125 37.3125 478.3125 C37.29832031 468.45246094 37.28414062 458.59242188 37.26953125 448.43359375 C37.24946187 442.16729183 37.22813549 435.90103541 37.20117188 429.63476562 C37.1586557 419.70025397 37.12110455 409.76591052 37.11694336 399.83129883 C37.11388821 392.59386643 37.09319124 385.35672742 37.05197543 378.11940819 C37.03078312 374.29304796 37.01797291 370.46710335 37.02634621 366.64068413 C37.03397498 363.02643184 37.01771346 359.41301552 36.98443985 355.79891586 C36.9724854 353.86595011 36.98467903 351.9328801 36.99806213 349.99992371 C36.8263907 336.63465806 33.01671061 324.64048959 24.3125 314.3125 C23.79042969 313.67957031 23.26835938 313.04664063 22.73046875 312.39453125 C14.35660556 303.16494482 2.6483343 297.94078801 -9.65869141 297.01318359 C-13.37703987 296.86642277 -17.09091157 296.84554031 -20.81176758 296.86645508 C-23.11825696 296.87497509 -25.42226856 296.84609259 -27.72851562 296.81445312 C-43.18282961 296.73987278 -55.96054455 300.8953309 -67.5 311.625 C-76.15266606 320.8986708 -81.76488336 333.46168754 -81.84571838 346.15278625 C-81.8555072 347.32081284 -81.86529602 348.48883942 -81.87538147 349.69226074 C-81.88113693 350.96468628 -81.8868924 352.23711182 -81.89282227 353.5480957 C-81.90240772 354.90842482 -81.91241819 356.26875099 -81.92282104 357.6290741 C-81.9498039 361.31459205 -81.97084919 365.00012273 -81.99082303 368.68568444 C-82.01272353 372.5400881 -82.0400923 376.39445284 -82.06687927 380.24882507 C-82.11675129 387.54432651 -82.16171044 394.83984961 -82.20490164 402.13539332 C-82.254321 410.44251111 -82.30922168 418.74958984 -82.36458123 427.05666983 C-82.47831695 444.14191044 -82.58517424 461.22718733 -82.6875 478.3125 C-96.97005924 478.40621765 -111.25257033 478.47634638 -125.53537464 478.51974869 C-132.16814178 478.54058424 -138.8007017 478.56882872 -145.43334961 478.61425781 C-151.83946953 478.65785858 -158.24539067 478.68166742 -164.65164757 478.69200897 C-167.09037083 478.69937476 -169.52908376 478.71375822 -171.96772194 478.73542023 C-175.39513921 478.76464251 -178.8217449 478.76844803 -182.24926758 478.76660156 C-183.24765152 478.78098267 -184.24603546 478.79536377 -185.27467346 478.81018066 C-197.05892298 478.74190749 -207.23189394 474.28948065 -215.84765625 466.3125 C-228.24564864 453.33516217 -228.98671096 438.09556964 -229.00634766 421.12475586 C-229.01565571 419.28108281 -229.02582568 417.43741395 -229.03678894 415.59375 C-229.06400408 410.60891358 -229.07921313 405.6241053 -229.09221697 400.63921428 C-229.10788474 395.42216832 -229.1346633 390.20517949 -229.1602478 384.98817444 C-229.20697113 375.11806563 -229.24374641 365.24794599 -229.27692068 355.37778336 C-229.31518766 344.13712435 -229.36458582 332.8965228 -229.41490483 321.65591228 C-229.51812879 298.54148415 -229.60742015 275.42701908 -229.6875 252.3125 C-230.35136719 252.66183594 -231.01523437 253.01117188 -231.69921875 253.37109375 C-232.58222656 253.82613281 -233.46523438 254.28117187 -234.375 254.75 C-235.24511719 255.20246094 -236.11523438 255.65492188 -237.01171875 256.12109375 C-245.12270447 259.73255455 -255.19144246 259.48019507 -263.5 256.6875 C-272.57143912 252.91652386 -279.27924311 247.07756839 -283.72265625 238.2578125 C-286.8619243 230.28553177 -287.03113234 221.11699611 -284.125 213.0625 C-280.1408713 204.43721086 -273.90618558 198.27373712 -266.6875 192.3125 C-264.40969659 190.38313428 -262.14227259 188.44172176 -259.875 186.5 C-259.26930176 185.9829248 -258.66360352 185.46584961 -258.03955078 184.93310547 C-254.29731572 181.7284732 -250.62674052 178.46076994 -247 175.125 C-243.54734304 171.95419258 -240.03219034 168.93214969 -236.375 166 C-231.31993577 161.9256615 -226.60723894 157.56148935 -221.8840332 153.11450195 C-217.54819278 149.05421693 -213.04682039 145.27729424 -208.41015625 141.5625 C-204.28057044 138.14981503 -200.37866515 134.50229586 -196.44921875 130.86328125 C-191.88788758 126.6503403 -187.19727708 122.59817106 -182.47265625 118.5703125 C-181.27328591 117.54705265 -180.07407183 116.52360963 -178.875 115.5 C-178.26889893 114.98276367 -177.66279785 114.46552734 -177.03833008 113.93261719 C-173.29698459 110.7276062 -169.6264307 107.46048497 -166 104.125 C-162.50490111 100.91604956 -158.9446616 97.85184163 -155.25 94.875 C-150.71272979 91.21549472 -146.42719027 87.36254979 -142.16381836 83.39428711 C-138.97443687 80.44332563 -135.7039417 77.65264247 -132.3125 74.9375 C-127.27413806 70.88648276 -122.5844524 66.54026443 -117.8815918 62.11206055 C-113.56540843 58.06995807 -109.08255501 54.31661892 -104.46484375 50.62109375 C-101.26307201 47.95970542 -98.22515082 45.15787754 -95.1875 42.3125 C-90.44885857 37.87415094 -85.56630421 33.72107547 -80.5 29.65625 C-77.28899552 26.98041293 -74.23728372 24.16884567 -71.1875 21.3125 C-66.34126288 16.77546011 -61.36179004 12.4901518 -56.17578125 8.33984375 C-53.8958652 6.48226693 -51.72908167 4.54960153 -49.5625 2.5625 C-35.04261633 -10.20907115 -15.96775166 -11.2992141 0 0 Z " fill="#169BEA" transform="translate(655.6875,218.6875)"/>
<path d="M0 0 C0.33 0 0.66 0 1 0 C1.09351649 28.86830804 1.16401515 57.73659332 1.20724869 86.60502243 C1.21135459 89.27558146 1.21549323 91.94614039 1.21972656 94.61669922 C1.2207758 95.28045859 1.22182505 95.94421796 1.22290608 96.62809125 C1.23920477 106.69171776 1.26727341 116.75526829 1.30175781 126.81884766 C1.34167547 138.50476211 1.3674447 150.19060832 1.37635398 161.87658906 C1.38156032 168.06199485 1.39376339 174.24720541 1.42292023 180.43254852 C1.45016699 186.2601667 1.4584262 192.0875101 1.45243073 197.91518593 C1.45352682 200.04841164 1.46142513 202.181647 1.4768219 204.31481743 C1.61912689 225.05648547 1.61912689 225.05648547 -3 235 C-3.56711512 236.23045107 -3.56711512 236.23045107 -4.1456871 237.48575974 C-11.06915091 251.70227845 -23.4994084 259.91669205 -38 265 C-41.56014786 265.84439999 -44.85622486 266.12805176 -48.51122189 266.13701439 C-50.16433358 266.1446262 -50.16433358 266.1446262 -51.85084146 266.15239179 C-53.05626724 266.15288955 -54.26169302 266.15338731 -55.50364685 266.15390015 C-56.7884436 266.1582824 -58.07324035 266.16266465 -59.39697033 266.1671797 C-62.96154144 266.17911961 -66.52609903 266.18478766 -70.0906862 266.18936086 C-73.93617344 266.19532685 -77.7816446 266.20693427 -81.62712097 266.21765137 C-90.91401873 266.24215381 -100.20092181 266.25680001 -109.48784193 266.26971143 C-112.11236605 266.27342515 -114.73688965 266.27739824 -117.36141324 266.2814641 C-133.67064941 266.30670405 -149.97988645 266.32875013 -166.28913784 266.34119225 C-170.06539857 266.34412179 -173.84165926 266.34708347 -177.61791992 266.35009766 C-178.55645434 266.35084371 -179.49498875 266.35158976 -180.4619636 266.35235842 C-195.65504885 266.3650036 -210.84801685 266.39821661 -226.04104733 266.43989949 C-241.65126529 266.48237462 -257.26142333 266.50589377 -272.87169892 266.51111281 C-281.63144398 266.51452076 -290.39100585 266.52620292 -299.15069389 266.55921555 C-306.61325352 266.58729409 -314.07559239 266.59818133 -321.53820073 266.58702008 C-325.34157183 266.58185316 -329.1444812 266.5845907 -332.94778442 266.60948563 C-337.08333895 266.6363277 -341.21788908 266.62385112 -345.35350037 266.60800171 C-347.13152429 266.62882484 -347.13152429 266.62882484 -348.94546789 266.65006864 C-363.08339161 266.51727483 -375.13919705 261.36231301 -385.40234375 251.75 C-407.69928768 228.59976205 -400 200.01883036 -400 168 C-268 168 -136 168 0 168 C0 112.56 0 57.12 0 0 Z " fill="#1AC4A8" transform="translate(1174,460)"/>
<path d="M0 0 C0.33 0 0.66 0 1 0 C1 62.04 1 124.08 1 188 C-131.33 188 -263.66 188 -400 188 C-400 181.4 -400 174.8 -400 168 C-268 168 -136 168 0 168 C0 112.56 0 57.12 0 0 Z " fill="#00877D" transform="translate(1174,460)"/>
<path d="M0 0 C1.69762738 -0.0001555 3.3952551 -0.00165283 5.09288025 -0.00440979 C8.62694257 -0.00578367 12.16059406 0.00659398 15.69458008 0.02954102 C20.18832805 0.05794444 24.68139629 0.05516865 29.17519474 0.0424509 C32.67314805 0.03544408 36.17094859 0.04333925 39.66888237 0.05570793 C41.32441049 0.06017247 42.9799553 0.06060384 44.6354847 0.05664253 C62.30691037 0.03413703 77.60834099 2.65396146 90.9609375 15.2421875 C102.26993559 27.57733286 104.66124029 41.12968247 104.27734375 57.24609375 C104.25722345 58.73304853 104.23898257 60.22002997 104.22265625 61.70703125 C104.18259416 65.30460724 104.10425458 68.8983761 104.02734375 72.49609375 C96.43734375 72.49609375 88.84734375 72.49609375 81.02734375 72.49609375 C80.98867187 69.83740234 80.98867187 69.83740234 80.94921875 67.125 C80.89291216 64.7695075 80.83556541 62.4140397 80.77734375 60.05859375 C80.76316406 58.89392578 80.74898437 57.72925781 80.734375 56.52929688 C80.4539725 46.57500801 78.42959623 38.56935723 71.02734375 31.49609375 C64.21477138 27.62446792 57.91469989 26.3821678 50.11669922 26.3190918 C49.4411348 26.3125206 48.76557037 26.3059494 48.0695343 26.29917908 C45.8445319 26.27954953 43.6195968 26.26780445 41.39453125 26.2578125 C40.62953434 26.25373697 39.86453743 26.24966145 39.0763588 26.24546242 C35.02421596 26.22464202 30.97210654 26.21032501 26.91992188 26.20092773 C22.76086465 26.1898936 18.60234687 26.1555173 14.44347954 26.11575603 C11.22271822 26.08945036 8.00208256 26.08122346 4.7812233 26.07764626 C3.24959815 26.07281337 1.71797736 26.06129498 0.18645859 26.04260826 C-11.60072085 25.90776726 -22.42345434 26.8748231 -31.33276367 35.47753906 C-37.27355016 42.79009268 -37.60701115 51.57974956 -37.72265625 60.62109375 C-37.76712891 62.34199219 -37.76712891 62.34199219 -37.8125 64.09765625 C-37.88247784 66.89676981 -37.92991332 69.69643187 -37.97265625 72.49609375 C-45.23265625 72.49609375 -52.49265625 72.49609375 -59.97265625 72.49609375 C-60.06523386 67.85435533 -60.14463123 63.21590591 -60.19238281 58.57397461 C-60.21231709 56.9999701 -60.23947496 55.42603786 -60.27441406 53.85229492 C-60.61850479 37.93809873 -57.38633597 26.19251087 -46.22265625 14.30859375 C-32.99767934 1.75734208 -17.37710723 -0.13166827 0 0 Z " fill="#019681" transform="translate(950.97265625,342.50390625)"/>
<path d="M0 0 C1.55216032 -0.00015539 3.10432101 -0.001651 4.65647888 -0.00440979 C7.89152419 -0.00578566 11.12612177 0.0066279 14.36108398 0.02954102 C18.48193878 0.05794736 22.60205253 0.055171 26.72296238 0.0424509 C29.92227879 0.03545587 33.12142759 0.04332594 36.32072258 0.05570793 C37.83917534 0.06018371 39.35764633 0.06059362 40.87610054 0.05664253 C51.61671011 0.04176889 62.15046152 0.26794847 70.74609375 7.49609375 C81.92675473 20.49196792 77.74609375 25.3724211 77.74609375 47.49609375 C39.13609375 47.49609375 0.52609375 47.49609375 -39.25390625 47.49609375 C-39.25390625 16.44932315 -39.25390625 16.44932315 -33.5 9.32421875 C-23.51040704 0.60759768 -12.75449133 -0.10510775 0 0 Z " fill="#FEFEFE" transform="translate(953.25390625,367.50390625)"/>
<path d="M0 0 C0.33 0 0.66 0 1 0 C1 45.87 1 91.74 1 139 C-35.63 139 -72.26 139 -110 139 C-110.33 138.34 -110.66 137.68 -111 137 C-74.7 137 -38.4 137 -1 137 C-1.01160156 127.52925781 -1.02320313 118.05851563 -1.03515625 108.30078125 C-1.04026458 102.30794244 -1.04511981 96.3151052 -1.04882812 90.32226562 C-1.05476391 80.80606549 -1.06174553 71.2898742 -1.07543945 61.77368164 C-1.08540748 54.84338521 -1.09185849 47.91309595 -1.09408849 40.98279256 C-1.09539199 37.31335671 -1.09845508 33.64394137 -1.10573006 29.9745121 C-1.11378599 25.87793696 -1.11398977 21.78139749 -1.11352539 17.68481445 C-1.11712067 16.46849335 -1.12071594 15.25217224 -1.12442017 13.99899292 C-1.1230455 12.88145126 -1.12167084 11.76390961 -1.12025452 10.61250305 C-1.12117631 9.64369863 -1.1220981 8.6748942 -1.12304783 7.67673206 C-1.00098671 5.02146445 -0.59288989 2.5873931 0 0 Z " fill="#2190F6" transform="translate(572,558)"/>
<path d="M0 0 C0.00331015 0.95214166 0.00662029 1.90428331 0.01003075 2.88527775 C0.0910285 26.05406482 0.18334518 49.22278571 0.28752708 72.39148045 C0.3376467 83.59568988 0.38408975 94.79989201 0.421875 106.00415039 C0.45481832 115.76989032 0.49466257 125.53557354 0.54279006 135.30125087 C0.56803169 140.47198072 0.58981994 145.64267307 0.60334396 150.81344795 C0.61618542 155.6815578 0.63826247 160.5495389 0.66738319 165.41757774 C0.67644264 167.20294934 0.68214539 168.98834166 0.68421364 170.77373505 C0.68754771 173.21494864 0.70305596 175.65579972 0.7215271 178.09693909 C0.71959237 178.80026558 0.71765763 179.50359207 0.71566427 180.22823149 C0.76716087 184.79363263 1.59761814 188.66748539 3 193 C3.33 194.175625 3.66 195.35125 4 196.5625 C4.33 197.696875 4.66 198.83125 5 200 C5.226875 200.94875 5.45375 201.8975 5.6875 202.875 C7.62200321 207.48096001 10.57718285 211.36729312 14 215 C14.66 215 15.32 215 16 215 C16.39832031 215.59296875 16.79664063 216.1859375 17.20703125 216.796875 C19.62311845 219.76566188 22.19783835 220.72975136 25.6875 222.25 C26.86699219 222.77078125 28.04648437 223.2915625 29.26171875 223.828125 C30.16535156 224.21484375 31.06898438 224.6015625 32 225 C32 225.33 32 225.66 32 226 C23.23859743 225.61906945 15.57696518 220.54741548 9.6640625 214.2421875 C-0.30885011 200.80450713 -1.30025283 186.88264341 -1.31884766 170.81225586 C-1.32815571 168.96858281 -1.33832568 167.12491395 -1.34928894 165.28125 C-1.37650408 160.29641358 -1.39171313 155.3116053 -1.40471697 150.32671428 C-1.42038474 145.10966832 -1.4471633 139.89267949 -1.4727478 134.67567444 C-1.51947113 124.80556563 -1.55624641 114.93544599 -1.58942068 105.06528336 C-1.62768766 93.82462435 -1.67708582 82.5840228 -1.72740483 71.34341228 C-1.83062879 48.22898415 -1.91992015 25.11451908 -2 2 C-2.66386719 2.34933594 -3.32773437 2.69867188 -4.01171875 3.05859375 C-4.89472656 3.51363281 -5.77773438 3.96867187 -6.6875 4.4375 C-7.99267578 5.11619141 -7.99267578 5.11619141 -9.32421875 5.80859375 C-13.49240536 7.66450166 -17.28627873 8.13005554 -21.8125 8.0625 C-22.60269531 8.05347656 -23.39289063 8.04445313 -24.20703125 8.03515625 C-24.79871094 8.02355469 -25.39039063 8.01195312 -26 8 C-26 7.34 -26 6.68 -26 6 C-25.01 5.90203125 -24.02 5.8040625 -23 5.703125 C-15.29550098 4.85855587 -6.99035894 0 0 0 Z " fill="#0069FD" transform="translate(428,469)"/>
<path d="M0 0 C4.23141109 1.72817532 7.35605019 4.71359348 10.75 7.6875 C11.36891113 8.22479736 11.98782227 8.76209473 12.62548828 9.31567383 C13.85568088 10.38449012 15.08439736 11.45500813 16.31152344 12.52734375 C17.76648061 13.79632895 19.23008998 15.05538155 20.6953125 16.3125 C21.77425781 17.240625 21.77425781 17.240625 22.875 18.1875 C23.49117187 18.71730469 24.10734375 19.24710937 24.7421875 19.79296875 C25.15726563 20.19128906 25.57234375 20.58960938 26 21 C26 21.33 26 21.66 26 22 C25.42165405 22.00364563 24.84330811 22.00729126 24.24743652 22.01104736 C18.14585307 22.05334681 12.0449891 22.12301136 5.94384766 22.20751953 C3.6766688 22.23548558 1.40939686 22.25681924 -0.85791016 22.27099609 C-23.35809292 22.42000393 -42.25158941 24.85110409 -60 40 C-60 37 -60 37 -58 34 C-54.875 32.8125 -54.875 32.8125 -52 32 C-52 31.34 -52 30.68 -52 30 C-49.58535319 28.84973914 -47.16846682 27.70467795 -44.75 26.5625 C-43.72712891 26.07426758 -43.72712891 26.07426758 -42.68359375 25.57617188 C-42.01972656 25.26357422 -41.35585938 24.95097656 -40.671875 24.62890625 C-40.0644043 24.34088135 -39.45693359 24.05285645 -38.83105469 23.75610352 C-34.50785885 21.97091185 -30.66740991 21.91024212 -26 22 C-25.67 21.34 -25.34 20.68 -25 20 C-14.26292371 18.17020886 -2.85390805 18.92847896 7.98193359 19.03662109 C9.68663818 19.04943115 9.68663818 19.04943115 11.42578125 19.0625 C12.45098877 19.07410156 13.47619629 19.08570313 14.5324707 19.09765625 C17.00426097 19.16932499 17.00426097 19.16932499 19 18 C13.46518393 13.11844318 13.46518393 13.11844318 7.8125 8.375 C5.04888109 6.04127737 2.48328697 3.62936267 0 1 C0 0.67 0 0.34 0 0 Z " fill="#0EAAC7" transform="translate(835,375)"/>
<path d="M0 0 C10.00496705 -0.06941263 20.00987712 -0.12276667 30.01503563 -0.15543652 C34.66050069 -0.17111389 39.30580141 -0.19238972 43.95117188 -0.22631836 C48.43154141 -0.25883827 52.91175257 -0.27683739 57.39223099 -0.28463173 C59.10433065 -0.29018854 60.81642133 -0.30103921 62.52845383 -0.31719017 C64.92069195 -0.33886699 67.31226983 -0.34197109 69.70458984 -0.34057617 C70.41740616 -0.351362 71.13022247 -0.36214783 71.86463928 -0.3732605 C73.83627319 -0.36076355 73.83627319 -0.36076355 77 0 C77.99 1.485 77.99 1.485 79 3 C71.65277701 3.02348393 64.30556251 3.04109425 56.95830917 3.05181217 C53.54429521 3.05696403 50.13030747 3.06391584 46.71630859 3.07543945 C31.11070127 3.12418905 15.57577456 3.02399289 0 2 C0 1.34 0 0.68 0 0 Z " fill="#24CB82" transform="translate(1056,415)"/>
<path d="M0 0 C0.33 0.66 0.66 1.32 1 2 C0.67 2.66 0.34 3.32 0 4 C0.66 4.33 1.32 4.66 2 5 C1.67 5.66 1.34 6.32 1 7 C0.34 7 -0.32 7 -1 7 C-0.979375 7.886875 -0.95875 8.77375 -0.9375 9.6875 C-1 13 -1 13 -1.625 15.6875 C-2.31277424 18.26830141 -2.31277424 18.26830141 0 21 C0 21.99 0 22.98 0 24 C1.07406172 28.95904401 1.07406172 28.95904401 4 33 C4.35835938 33.50015625 4.71671875 34.0003125 5.0859375 34.515625 C10.2962142 41.52581547 18.42634478 45.64709294 27 47 C27 47.33 27 47.66 27 48 C19.22802815 48.84477955 13.60496621 45.37600046 7.25 41.1875 C-0.47483435 33.67724438 -4.07570252 26.23715081 -4.375 15.4375 C-4.25954287 10.25408247 -3.91760427 3.91760427 0 0 Z " fill="#1480F9" transform="translate(374,428)"/>
<path d="M0 0 C2 1 2 1 2.78125 3.328125 C3.0184375 4.29234375 3.255625 5.2565625 3.5 6.25 C4.42656598 9.97640667 5.50201207 13.46164919 7 17 C7.66 17 8.32 17 9 17 C9.061875 17.8353125 9.061875 17.8353125 9.125 18.6875 C10.43175499 22.14106675 13.20269531 23.67883228 16 26 C16 26.99 16 27.98 16 29 C16.99 29.33 17.98 29.66 19 30 C23.57364341 32.51550388 23.57364341 32.51550388 25.375 34.5625 C27.86019586 36.76094249 30.84631848 37.12397736 34 38 C34.33 38.66 34.66 39.32 35 40 C35.99 40.33 36.98 40.66 38 41 C26.84584877 40.27255535 18.49101468 33.90648272 11 26 C5.32051508 19.18027432 0.37272916 11.40457287 -0.25 2.375 C-0.1675 1.59125 -0.085 0.8075 0 0 Z " fill="#0FB1B9" transform="translate(775,683)"/>
<path d="M0 0 C0.99 0.495 0.99 0.495 2 1 C2.34541851 3.33157492 2.67794257 5.66508361 3 8 C3.99 9.485 3.99 9.485 5 11 C5.144375 12.11375 5.28875 13.2275 5.4375 14.375 C6.03120897 18.20112445 6.79004625 19.87558263 9 23 C9.48210937 23.68835938 9.96421875 24.37671875 10.4609375 25.0859375 C12.6284612 28.12435419 12.6284612 28.12435419 15 31 C15.66 31 16.32 31 17 31 C17.39832031 31.59296875 17.79664063 32.1859375 18.20703125 32.796875 C20.62311845 35.76566188 23.19783835 36.72975136 26.6875 38.25 C27.86699219 38.77078125 29.04648437 39.2915625 30.26171875 39.828125 C31.16535156 40.21484375 32.06898438 40.6015625 33 41 C33 41.33 33 41.66 33 42 C24.23859743 41.61906945 16.57696518 36.54741548 10.6640625 30.2421875 C4.33723116 21.71730208 -0.69575733 10.78423861 0 0 Z " fill="#137CFC" transform="translate(427,653)"/>
<path d="M0 0 C3.40413148 0.84312203 6.8768557 0.76074546 10.36676025 0.83680725 C11.55685699 0.8679789 11.55685699 0.8679789 12.77099609 0.89978027 C15.29762369 0.96500073 17.82435247 1.02403244 20.35113525 1.082901 C22.06729142 1.1261124 23.78343747 1.16972753 25.49957275 1.21376038 C29.69999072 1.32065383 33.90051015 1.42199829 38.10113525 1.520401 C38.10113525 1.850401 38.10113525 2.180401 38.10113525 2.520401 C32.39028232 2.54521254 26.67946111 2.56331375 20.96856689 2.57533264 C19.02780612 2.58034586 17.0870491 2.58715812 15.14630127 2.59584045 C12.34868441 2.60803832 9.55111771 2.61365956 6.753479 2.61805725 C5.46243507 2.62579918 5.46243507 2.62579918 4.14530945 2.63369751 C-0.6461614 2.63413868 -5.17387238 2.32601917 -9.89886475 1.520401 C-9.89886475 1.190401 -9.89886475 0.860401 -9.89886475 0.520401 C-2.39567098 -0.60507806 -2.39567098 -0.60507806 0 0 Z " fill="#13B5C9" transform="translate(820.8988647460938,394.47959899902344)"/>
<path d="M0 0 C10.42831971 4.64556238 19.95742199 14.95742199 28 23 C26.68 23 25.36 23 24 23 C22.95884159 21.69855198 21.96113866 20.36161311 21 19 C20.360625 18.690625 19.72125 18.38125 19.0625 18.0625 C16.27075195 16.62432676 14.93619487 14.43585806 13 12 C12.01 11.67 11.02 11.34 10 11 C8.66666667 9.33333333 7.33333333 7.66666667 6 6 C5.01 5.67 4.02 5.34 3 5 C1.3125 2.4375 1.3125 2.4375 0 0 Z " fill="#13A7CD" transform="translate(791,337)"/>
<path d="M0 0 C0.66 0.33 1.32 0.66 2 1 C0.85729156 4.04722251 -0.46574091 6.88757632 -2 9.75 C-4.18198604 14.01627122 -5.17367829 18.30301346 -6 23 C-6.66 22.67 -7.32 22.34 -8 22 C-7.3932538 13.65723977 -4.52682083 7.01657229 0 0 Z " fill="#12BCA5" transform="translate(782,437)"/>
<path d="M0 0 C-1.43596614 2.87193228 -3.34998674 3.26369727 -6.25 4.5625 C-7.20390625 4.99691406 -8.1578125 5.43132812 -9.140625 5.87890625 C-13.42579011 7.5590188 -17.22811489 8.13092366 -21.8125 8.0625 C-22.60269531 8.05347656 -23.39289063 8.04445313 -24.20703125 8.03515625 C-24.79871094 8.02355469 -25.39039063 8.01195312 -26 8 C-26 7.34 -26 6.68 -26 6 C-25.01 5.90203125 -24.02 5.8040625 -23 5.703125 C-15.29550098 4.85855587 -6.99035894 0 0 0 Z " fill="#0F80F8" transform="translate(428,469)"/>
<path d="M0 0 C7.88764974 3.48912506 14.89384504 10.13310196 20 17 C19.401875 16.690625 18.80375 16.38125 18.1875 16.0625 C15.91043228 14.89790296 15.91043228 14.89790296 13 14 C13 13.01 13 12.02 13 11 C12.195625 10.62875 12.195625 10.62875 11.375 10.25 C8.4176018 8.69347463 5.70275949 6.96564327 3 5 C3 4.34 3 3.68 3 3 C2.01 3 1.02 3 0 3 C0 2.01 0 1.02 0 0 Z " fill="#0D9FD3" transform="translate(739,292)"/>
<path d="M0 0 C0.66 0.33 1.32 0.66 2 1 C1.195625 1.763125 0.39125 2.52625 -0.4375 3.3125 C-3.16799024 5.79430898 -3.16799024 5.79430898 -4 9 C-6.24578708 11.24578708 -8.069792 11.85650419 -11 13 C-11.99 13.66 -12.98 14.32 -14 15 C-12.40153531 10.75091664 -9.1869608 8.17774261 -5.875 5.25 C-5.31167969 4.74339844 -4.74835938 4.23679687 -4.16796875 3.71484375 C-2.78348469 2.47115468 -1.39238512 1.23483695 0 0 Z " fill="#1085F6" transform="translate(396,405)"/>
<path d="M0 0 C3.65415742 1.56363945 6.2119688 3.82175042 9.125 6.5 C9.99382813 7.2940625 10.86265625 8.088125 11.7578125 8.90625 C13.19408422 10.24743753 14.61045683 11.61045683 16 13 C15.34 13.66 14.68 14.32 14 15 C14 14.34 14 13.68 14 13 C13.34 13 12.68 13 12 13 C12 12.34 12 11.68 12 11 C11.01 10.67 10.02 10.34 9 10 C7.66666667 8.66666667 6.33333333 7.33333333 5 6 C4.01 5.67 3.02 5.34 2 5 C0.8125 2.4375 0.8125 2.4375 0 0 Z " fill="#11A9CA" transform="translate(819,361)"/>
<path d="M0 0 C0.33 0.66 0.66 1.32 1 2 C-0.07972738 3.4194169 -1.16395863 4.8354083 -2.25 6.25 C-3.15492187 7.43335938 -3.15492187 7.43335938 -4.078125 8.640625 C-5.93182995 10.91631157 -7.88898954 12.96371558 -10 15 C-10.66 14.67 -11.32 14.34 -12 14 C-11.21625 13.2575 -10.4325 12.515 -9.625 11.75 C-7.02603885 9.29714924 -7.02603885 9.29714924 -6 7 C-4.55382014 4.10764028 -2.32820969 2.20567234 0 0 Z " fill="#15C68A" transform="translate(1167,699)"/>
<path d="M0 0 C0.66 0.33 1.32 0.66 2 1 C1.50628906 1.48210937 1.01257813 1.96421875 0.50390625 2.4609375 C-0.45708984 3.40839844 -0.45708984 3.40839844 -1.4375 4.375 C-2.07558594 5.00148438 -2.71367187 5.62796875 -3.37109375 6.2734375 C-5.07882176 7.91723061 -5.07882176 7.91723061 -6 10 C-7.97888961 10.72693904 -9.97954558 11.39816251 -12 12 C-8.32167983 7.47384007 -4.58913637 3.60575001 0 0 Z " fill="#1187F2" transform="translate(445,362)"/>
<path d="M0 0 C5.44208234 0.34013015 8.93668198 3.70296528 13 7 C12.01 7.495 12.01 7.495 11 8 C8.3984375 6.78515625 8.3984375 6.78515625 5.375 5.0625 C4.37210938 4.49660156 3.36921875 3.93070312 2.3359375 3.34765625 C1.56507812 2.90292969 0.79421875 2.45820313 0 2 C0 1.34 0 0.68 0 0 Z " fill="#34CF82" transform="translate(1144,419)"/>
<path d="M0 0 C0.66 0.33 1.32 0.66 2 1 C-3.94 6.445 -3.94 6.445 -10 12 C-10 9 -10 9 -7.8125 6.73828125 C-6.884375 5.93777344 -5.95625 5.13726562 -5 4.3125 C-4.071875 3.50425781 -3.14375 2.69601562 -2.1875 1.86328125 C-1.1046875 0.94095703 -1.1046875 0.94095703 0 0 Z " fill="#0F87F0" transform="translate(460,349)"/>
<path d="M0 0 C3.47775179 1.51553404 5.9557984 3.5773456 8.75 6.125 C9.94882812 7.21167969 9.94882812 7.21167969 11.171875 8.3203125 C11.77515625 8.87460938 12.3784375 9.42890625 13 10 C12.01 10.33 11.02 10.66 10 11 C6.40365256 7.50640535 3.16548033 3.88901869 0 0 Z " fill="#109CDB" transform="translate(687,247)"/>
<path d="M0 0 C0.66 0.33 1.32 0.66 2 1 C1.0919838 2.13199353 0.17316174 3.25532363 -0.75 4.375 C-1.26046875 5.00148438 -1.7709375 5.62796875 -2.296875 6.2734375 C-4.09835676 8.09971029 -5.66264801 8.9833469 -8 10 C-8.99 10.495 -8.99 10.495 -10 11 C-8.55218207 7.55571735 -6.72305391 5.63869038 -3.875 3.25 C-3.15054687 2.63640625 -2.42609375 2.0228125 -1.6796875 1.390625 C-0.84824219 0.70226562 -0.84824219 0.70226562 0 0 Z " fill="#0B89EC" transform="translate(507,308)"/>
<path d="M0 0 C-1.32 0.33 -2.64 0.66 -4 1 C-4 1.99 -4 2.98 -4 4 C-5.65 4.66 -7.3 5.32 -9 6 C-8.8125 4.1875 -8.8125 4.1875 -8 2 C-3.744 -1.248 -3.744 -1.248 0 0 Z M-11 6 C-9 7 -9 7 -9 7 Z " fill="#0F99E2" transform="translate(618,216)"/>
<path d="M0 0 C3.36591866 1.44253657 5.51047079 3.33264727 8 6 C6.35 5.67 4.7 5.34 3 5 C3 4.34 3 3.68 3 3 C2.01 3 1.02 3 0 3 C0 2.01 0 1.02 0 0 Z " fill="#15A5D7" transform="translate(739,292)"/>
<path d="M0 0 C0.99 0 1.98 0 3 0 C2.34 2.97 1.68 5.94 1 9 C0.34 8.67 -0.32 8.34 -1 8 C-0.67 5.36 -0.34 2.72 0 0 Z " fill="#1EC0AD" transform="translate(775,451)"/>
<path d="M0 0 C0.99 0.66 1.98 1.32 3 2 C3 2.66 3 3.32 3 4 C0.36 4 -2.28 4 -5 4 C-4.67 3.34 -4.34 2.68 -4 2 C-2.68 2 -1.36 2 0 2 C0 1.34 0 0.68 0 0 Z " fill="#32D396" transform="translate(1171,624)"/>
<path d="M0 0 C0.66 0.33 1.32 0.66 2 1 C0.02579865 3.52259061 -0.96745642 3.9929808 -4.1875 4.6875 C-5.5796875 4.8421875 -5.5796875 4.8421875 -7 5 C-4.63707344 2.47411298 -3.33537489 1.11179163 0 0 Z " fill="#11BCA1" transform="translate(804,419)"/>
</svg>
